<svg id="Calque_1" data-name="Calque 1" xmlns="http://www.w3.org/2000/svg" viewBox="0 0 500 500"><defs><style>.cls-1{fill:#2c2d35;}.cls-2{fill:#4cb37d;}.cls-3{fill:#765fa6;}.cls-4{fill:#e95025;}.cls-5{fill:#ee7265;}.cls-6{fill:#46b7ea;}</style></defs><rect class="cls-1" width="500" height="500" rx="58.11"/><path class="cls-2" d="M182.67,459a66.87,66.87,0,0,0,66.84-66.85V325.31H182.67a66.85,66.85,0,0,0,0,133.7Z" transform="translate(0.49)"/><path class="cls-3" d="M115.82,258.47a66.88,66.88,0,0,1,66.85-66.85h66.84V325.31H182.67A66.87,66.87,0,0,1,115.82,258.47Z" transform="translate(0.49)"/><path class="cls-4" d="M115.82,124.78a66.88,66.88,0,0,1,66.85-66.85h66.84V191.62H182.67A66.87,66.87,0,0,1,115.82,124.78Z" transform="translate(0.49)"/><path class="cls-5" d="M249.51,57.93h66.85a66.85,66.85,0,0,1,0,133.69H249.51Z" transform="translate(0.49)"/><path class="cls-6" d="M383.2,258.47a66.85,66.85,0,1,1-66.84-66.85A66.86,66.86,0,0,1,383.2,258.47Z" transform="translate(0.49)"/></svg>