<svg id="Calque_3" data-name="Calque 3" xmlns="http://www.w3.org/2000/svg" viewBox="0 0 300 156.16"><defs><style>.cls-1{fill:#8a93be;}.cls-2{fill:#232532;fill-rule:evenodd;}</style></defs><ellipse class="cls-1" cx="150" cy="78.08" rx="150" ry="78.08"/><path class="cls-2" d="M42.12,196.23,58.56,113h38c16.44,1,24.66,9.25,24.66,23.63,0,24.66-19.52,39.05-37,38H65.75l-4.11,21.57Zm27.74-37L75,128.42H88.36c7.19,0,12.32,3.09,12.32,9.25-1,17.47-9.24,20.55-18.49,21.58Zm47.55,15.41,16.44-83.22h19.52L149.26,113h18.49c16.44,1,22.61,9.25,20.55,19.52l-7.19,42.13H160.56l7.2-38c1-5.13,1-8.22-6.17-8.22H146.18l-9.25,46.24Zm62.38,21.57L196.23,113h38c16.44,1,24.65,9.25,24.65,23.63,0,24.66-19.52,39.05-37,38h-18.5l-4.11,21.57Zm27.74-37,5.14-30.83H226c7.19,0,12.33,3.09,12.33,9.25-1,17.47-9.25,20.55-18.5,21.58Z" transform="translate(0 -71.92)"/></svg>