<svg id="Calque_2" data-name="Calque 2" xmlns="http://www.w3.org/2000/svg" viewBox="0 0 291.06 291.06"><defs><style>.cls-1{fill:#cf649a;}.cls-2{fill:#fdfdfd;}</style></defs><rect class="cls-1" width="291.06" height="291.06" rx="60.35"/><path class="cls-2" d="M229.35,152.53a45.23,45.23,0,0,0-19.93,4.64c-2.06-4.08-4.12-7.65-4.47-10.31-.38-3.09-.86-5-.38-8.68s2.62-8.93,2.62-9.36-.48-2.28-4.9-2.32-8.25.86-8.68,2a48.14,48.14,0,0,0-1.84,6.57c-.78,4-8.85,18.34-13.45,25.86-1.5-2.92-2.79-5.5-3-7.56-.38-3.09-.86-5-.38-8.68s2.62-8.93,2.62-9.36-.48-2.28-4.9-2.32-8.25.86-8.68,2-.9,3.91-1.84,6.57-11.64,26.54-14.44,32.77c-1.41,3.18-2.66,5.72-3.56,7.43s0,.13-.13.3l-1.2,2.28v0c-.6,1.08-1.25,2.11-1.55,2.11s-.64-2.88.09-6.83c1.59-8.29,5.45-21.22,5.41-21.69,0-.22.73-2.49-2.49-3.65a3.91,3.91,0,0,0-4.51.77c-.26,0-.48.69-.48.69s3.48-14.56-6.65-14.56c-6.36,0-15.12,6.91-19.46,13.23-2.75,1.5-8.59,4.68-14.78,8.07-2.36,1.29-4.81,2.66-7.13,3.91l-.47-.52c-12.28-13.1-35-22.37-34.06-40,.34-6.4,2.58-23.28,43.64-43.73C134,65.51,160.88,70.1,165.57,80.33c6.65,14.6-14.39,41.75-49.36,45.66-13.31,1.5-20.31-3.66-22.07-5.59s-2.11-2.1-2.8-1.72c-1.11.6-.43,2.41,0,3.48,1,2.71,5.33,7.52,12.63,9.92,6.4,2.11,22,3.27,40.94-4,21.17-8.21,37.71-31,32.85-50-4.94-19.37-37.06-25.73-67.43-14.95C92.25,69.55,72.66,79.6,58.57,92.78c-16.75,15.64-19.41,29.3-18.3,35,3.91,20.23,31.79,33.41,42.95,43.16l-1.54.86c-5.59,2.75-26.85,13.88-32.17,25.65-6,13.31.94,22.89,5.58,24.18,14.35,4,29-3.18,37-15s7-27.15,3.31-34.15l-.13-.26,4.38-2.57c2.84-1.68,5.63-3.23,8.08-4.56a53.45,53.45,0,0,0-2.88,14.61c-.6,7.56,2.49,17.35,6.57,21.21a7.26,7.26,0,0,0,5.29,1.72c4.72,0,6.87-3.91,9.23-8.59,2.92-5.71,5.5-12.33,5.5-12.33s-3.22,17.92,5.58,17.92c3.22,0,6.44-4.17,7.9-6.32v0a4.43,4.43,0,0,0,.26-.42c.18-.27.35-.54.52-.82V192c1.29-2.23,4.16-7.34,8.46-15.8,5.54-10.91,10.87-24.57,10.87-24.57a77.44,77.44,0,0,0,2.1,8.85c.95,3.26,3,6.83,4.6,10.3-1.29,1.81-2.06,2.84-2.06,2.84l0,0c-1,1.38-2.19,2.84-3.39,4.3-4.39,5.24-9.63,11.21-10.31,12.93-.82,2-.65,3.52.94,4.72,1.16.86,3.22,1,5.41.86a24,24,0,0,0,8.08-1.85,27.89,27.89,0,0,0,7-3.65,15.47,15.47,0,0,0,6.65-13.7,27.33,27.33,0,0,0-2.53-9.66c.39-.56.77-1.12,1.16-1.72a180.85,180.85,0,0,0,12-20.83,77.44,77.44,0,0,0,2.1,8.85,62.26,62.26,0,0,0,3.91,8.84C194.34,168,190.35,174,189,177.92c-2.53,7.3-.55,10.61,3.18,11.38,1.68.34,4.08-.43,5.89-1.2a26.62,26.62,0,0,0,7.43-3.83c4.29-3.18,8.42-7.6,8.2-13.57a26.27,26.27,0,0,0-1.84-8c5.41-2.24,12.41-3.52,21.3-2.45,19.11,2.23,22.89,14.17,22.16,19.16s-4.72,7.73-6,8.59-1.76,1.11-1.64,1.72c.18.9.78.85,1.94.68,1.59-.26,10-4.08,10.39-13.27.52-11.81-10.69-24.7-30.58-24.57ZM81.94,202.23c-6.32,6.91-15.21,9.53-19,7.3-4.08-2.36-2.49-12.54,5.28-19.89a100.66,100.66,0,0,1,14.91-11.12c.9-.56,2.28-1.38,3.91-2.37a4,4,0,0,1,.43-.25l1-.61a27.44,27.44,0,0,1-6.53,26.94Zm46.17-31.4c-2.19,5.37-6.83,19.15-9.62,18.38-2.41-.64-3.87-11.08-.47-21.39A47.78,47.78,0,0,1,125.53,154c3.48-3.86,7.26-5.15,8.21-3.56C134.85,152.53,129.48,167.48,128.11,170.83ZM166.21,189c-1,.47-1.8.82-2.19.56s.38-.82.38-.82,4.77-5.11,6.66-7.47c1.08-1.38,2.37-3,3.74-4.77v.52c0,6.18-5.93,10.3-8.59,12Zm29.38-6.7c-.69-.52-.6-2.11,1.72-7.09a26.57,26.57,0,0,1,6.53-8.42,10.72,10.72,0,0,1,.64,3.7C204.44,178.26,198.94,181.14,195.59,182.34Z" transform="translate(-4.47 -4.27)"/></svg>