<svg id="Calque_4" data-name="Calque 4" xmlns="http://www.w3.org/2000/svg" viewBox="0 0 300.02 300.01"><defs><style>.cls-1{fill:#fdfdfd;}.cls-2{fill:#05759b;}</style></defs><circle class="cls-1" cx="150.01" cy="150.01" r="150.01"/><path class="cls-2" d="M21.32,150A128.71,128.71,0,0,0,93.84,265.81L32.46,97.63A128,128,0,0,0,21.32,150Zm215.55-6.5c0-15.9-5.71-26.91-10.61-35.49-6.53-10.6-12.64-19.57-12.64-30.17,0-11.83,9-22.84,21.61-22.84.57,0,1.11.07,1.67.1A128.66,128.66,0,0,0,42.48,79.32c3,.09,5.87.15,8.28.15,13.46,0,34.3-1.63,34.3-1.63,6.94-.41,7.75,9.78.83,10.6,0,0-7,.82-14.73,1.23L118,229.05l28.16-84.46L126.13,89.66c-6.93-.4-13.5-1.22-13.5-1.22-6.93-.41-6.12-11,.82-10.6,0,0,21.25,1.63,33.89,1.63,13.46,0,34.3-1.63,34.3-1.63,6.94-.41,7.75,9.78.82,10.6,0,0-7,.82-14.73,1.22L214.24,228l12.83-42.89c5.57-17.8,9.8-30.58,9.8-41.6Z" transform="translate(0.01 0.01)"/><path class="cls-2" d="M152.26,161.25,113.65,273.44a128.8,128.8,0,0,0,79.08-2.05,11,11,0,0,1-.91-1.77Zm110.65-73a99.29,99.29,0,0,1,.87,13.23c0,13.06-2.44,27.74-9.79,46.09l-39.3,113.65a128.69,128.69,0,0,0,48.22-173Z" transform="translate(0.01 0.01)"/><path class="cls-2" d="M150,0C67.29,0,0,67.29,0,150S67.29,300,150,300s150-67.28,150-150S232.71,0,150,0Zm0,293.13C71.08,293.13,6.87,228.92,6.87,150S71.08,6.88,150,6.88,293.12,71.08,293.12,150,228.91,293.13,150,293.13Z" transform="translate(0.01 0.01)"/></svg>